<svg width="536" height="534" viewBox="0 0 536 534" fill="none" xmlns="http://www.w3.org/2000/svg">
<path d="M0.669556 0.333008H534.003V288.243L507.604 329.49L534.003 366.2V533.666H0.669556V262.256L17.1687 243.282L0.669556 225.133V0.333008Z" fill="#016FD0"/>
<path d="M104.201 371.976V288.242H192.859L202.371 300.643L212.198 288.242H534.003V366.202C534.003 366.202 525.587 371.892 515.854 371.976H337.664L326.939 358.776V371.976H291.796V349.444C291.796 349.444 286.995 352.589 276.617 352.589H264.655V371.976H211.446L201.947 359.31L192.303 371.976L104.201 371.976ZM0.669556 225.134L20.6621 178.523H55.2376L66.5831 204.633V178.523H109.563L116.318 197.394L122.866 178.523H315.802V188.01C315.802 188.01 325.945 178.523 342.614 178.523L405.214 178.743L416.364 204.51V178.523H452.332L462.232 193.324V178.523H498.53V262.257H462.232L452.745 247.407V262.256H399.9L394.585 249.057H380.379L375.151 262.256H339.314C324.971 262.256 315.802 252.963 315.802 252.963V262.256H261.767L251.043 249.058V262.257H50.1155L44.8047 249.058H30.6426L25.3709 262.256H0.669556V225.134Z" fill="white"/>
<path d="M27.7384 188.847L0.772766 251.543H18.3289L23.3044 238.988H52.2296L57.179 251.543H75.1222L48.1811 188.847H27.7384ZM37.7152 203.438L46.5317 225.377H28.8729L37.7152 203.438ZM76.978 251.532V188.836L101.926 188.928L116.436 229.351L130.6 188.836H155.349V251.532H139.674V205.335L123.059 251.532H109.313L92.6521 205.335V251.532H76.978ZM166.073 251.532V188.836H217.22V202.86H181.912V213.584H216.395V226.784H181.912V237.921H217.22V251.532H166.073ZM226.295 188.847V251.543H241.969V229.269H248.568L267.362 251.543H286.516L265.892 228.444C274.357 227.73 283.088 220.465 283.088 209.187C283.088 195.993 272.732 188.847 261.175 188.847H226.295ZM241.969 202.871H259.885C264.184 202.871 267.31 206.233 267.31 209.47C267.31 213.635 263.259 216.07 260.118 216.07H241.969V202.871ZM305.49 251.532H289.486V188.836H305.49V251.532ZM343.438 251.532H339.984C323.27 251.532 313.121 238.364 313.121 220.442C313.121 202.077 323.156 188.836 344.263 188.836H361.587V203.685H343.63C335.061 203.685 329.002 210.372 329.002 220.596C329.002 232.739 335.931 237.838 345.913 237.838H350.038L343.438 251.532ZM377.545 188.847L350.579 251.543H368.136L373.111 238.988H402.036L406.986 251.543H424.928L397.988 188.847H377.545ZM387.522 203.438L396.338 225.377H378.679L387.522 203.438ZM426.758 251.532V188.836H446.686L472.131 228.228V188.836H487.806V251.532H468.522L442.433 211.11V251.532H426.758ZM114.926 361.251V298.555H166.073V312.579H130.765V323.304H165.248V336.503H130.765V347.64H166.073V361.251H114.926ZM365.547 361.251V298.555H416.694V312.579H381.386V323.304H415.704V336.503H381.386V347.64H416.693V361.251H365.547ZM168.058 361.251L192.961 330.29L167.465 298.555H187.213L202.397 318.173L217.633 298.555H236.607L211.446 329.903L236.395 361.251H216.651L201.907 341.943L187.522 361.251H168.058ZM238.257 298.565V361.262H254.343V341.463H270.842C284.803 341.463 295.385 334.057 295.385 319.654C295.385 307.722 287.085 298.565 272.879 298.565H238.257ZM254.343 312.745H271.719C276.229 312.745 279.452 315.509 279.452 319.963C279.452 324.147 276.245 327.181 271.667 327.181H254.343V312.745ZM302.191 298.555V361.251H317.865V338.977H324.464L343.258 361.251H362.412L341.789 338.153C350.252 337.439 358.983 330.174 358.983 318.895C358.983 305.702 348.628 298.555 337.071 298.555H302.191ZM317.865 312.579H335.782C340.08 312.579 343.206 315.941 343.206 319.179C343.206 323.344 339.155 325.778 336.014 325.778H317.865V312.579ZM423.954 361.251V347.64H455.323C459.964 347.64 461.974 345.131 461.974 342.38C461.974 339.745 459.971 337.08 455.323 337.08H441.147C428.826 337.08 421.964 329.574 421.964 318.302C421.964 308.249 428.248 298.555 446.558 298.555H477.081L470.481 312.662H444.083C439.036 312.662 437.483 315.309 437.483 317.838C437.483 320.437 439.403 323.304 443.258 323.304H458.107C471.842 323.304 477.803 331.095 477.803 341.298C477.803 352.267 471.161 361.251 457.359 361.251H423.954ZM481.482 361.251V347.64H512.85C517.492 347.64 519.501 345.131 519.501 342.38C519.501 339.745 517.498 337.08 512.85 337.08H498.675C486.353 337.08 479.492 329.574 479.492 318.302C479.492 308.249 485.775 298.555 504.085 298.555H534.609L528.009 312.662H501.61C496.564 312.662 495.011 315.309 495.011 317.838C495.011 320.437 496.93 323.304 500.785 323.304H515.635C529.37 323.304 535.33 331.095 535.33 341.298C535.33 352.267 528.689 361.251 514.887 361.251H481.482Z" fill="#016FD0"/>
</svg>
