<svg id="fi_11618737" enable-background="new 0 0 512 512" viewBox="0 0 512 512" xmlns="http://www.w3.org/2000/svg"><g id="guide"></g><g id="GLYPH"><path fill="#38bdf8" d="m379.9 275.2c-21.3-8.8-43.3-14.9-65.8-18.2-1.1-.2-1.1-1.8 0-2 22.5-3.3 44.5-9.4 65.8-18.2 34-14.1 64.4-34.4 90.4-60.4 17.7-17.7 27.6-41.1 27.9-66 .7-52.5-42.7-96.5-95.2-96.5-25.4 0-49.4 9.9-67.3 27.9-26 26-46.3 56.4-60.4 90.4-8.8 21.3-14.9 43.3-18.2 65.8-.2 1.1-1.8 1.1-2 0-3.3-22.5-9.4-44.5-18.2-65.8-14.1-34-34.4-64.4-60.4-90.4-17.7-17.7-41.1-27.6-66-27.9-52.5-.7-96.5 42.7-96.5 95.2 0 25.4 9.9 49.4 27.9 67.3 26 26 56.4 46.3 90.4 60.4 21.3 8.8 43.3 14.9 65.8 18.2 1.1.2 1.1 1.8 0 2-22.5 3.3-44.5 9.4-65.8 18.2-34 14.1-64.4 34.4-90.4 60.4-17.7 17.7-27.6 41.1-27.9 66-.7 52.5 42.7 96.5 95.2 96.5 25.4 0 49.4-9.9 67.3-27.9 26-26 46.3-56.4 60.4-90.4 8.8-21.3 14.9-43.3 18.2-65.8.2-1.1 1.8-1.1 2 0 3.3 22.5 9.4 44.5 18.2 65.8 14.1 34 34.4 64.4 60.4 90.4 17.7 17.7 41.1 27.6 66 27.9 52.5.7 96.5-42.7 96.5-95.2 0-25.4-9.9-49.4-27.9-67.3-26-26-56.4-46.3-90.4-60.4z"></path></g><g id="Number"></g></svg>