<svg id="fi_5089793" enable-background="new 0 0 512 512" height="512" viewBox="0 0 512 512" width="512" xmlns="http://www.w3.org/2000/svg"><g><path d="m74.994 370.337-70.601 70.601c-5.858 5.858-5.858 15.355 0 21.213l45.456 45.456c5.858 5.858 15.355 5.858 21.213 0l70.601-70.601c5.858-5.858 5.858-15.355 0-21.213l-45.456-45.456c-5.858-5.858-15.355-5.858-21.213 0z" fill="#60c7ff"></path><path d="m71.062 507.607 70.601-70.601c5.858-5.858 5.858-15.355 0-21.213l-22.728-22.728-91.814 91.814 22.728 22.728c5.858 5.857 15.355 5.857 21.213 0z" fill="#2585fd"></path><path d="m440.938 4.393-70.6 70.601c-5.858 5.858-5.858 15.355 0 21.213l45.456 45.456c5.858 5.858 15.355 5.858 21.213 0l70.6-70.601c5.858-5.858 5.858-15.355 0-21.213l-45.456-45.456c-5.858-5.857-15.355-5.857-21.213 0z" fill="#60c7ff"></path><path d="m437.006 141.663 70.601-70.601c5.858-5.858 5.858-15.355 0-21.213l-22.728-22.728-91.814 91.814 22.728 22.728c5.858 5.858 15.355 5.858 21.213 0z" fill="#2585fd"></path><path d="m63.2 190.667h-16.067c-8.284 0-15-6.716-15-15s6.716-15 15-15h16.067c8.284 0 15 6.716 15 15s-6.716 15-15 15z" fill="#142d3f"></path><path d="m464.867 351.333h-16.067c-8.284 0-15-6.716-15-15s6.716-15 15-15h16.067c8.284 0 15 6.716 15 15s-6.716 15-15 15z" fill="#070f15"></path><path d="m175.667 78.2c-8.284 0-15-6.716-15-15v-16.067c0-8.284 6.716-15 15-15s15 6.716 15 15v16.067c0 8.284-6.716 15-15 15z" fill="#142d3f"></path><path d="m336.333 479.867c-8.284 0-15-6.716-15-15v-16.067c0-8.284 6.716-15 15-15s15 6.716 15 15v16.067c0 8.284-6.715 15-15 15z" fill="#070f15"></path><path d="m85.514 106.731-11.327-11.36c-5.849-5.867-5.835-15.364.032-21.213 5.867-5.848 15.363-5.835 21.213.032l11.327 11.361c5.849 5.867 5.835 15.364-.032 21.213-5.865 5.845-15.361 5.837-21.213-.033z" fill="#142d3f"></path><path d="m416.568 437.811-11.327-11.361c-5.849-5.867-5.835-15.364.032-21.213 5.867-5.848 15.363-5.835 21.213.032l11.327 11.361c5.849 5.867 5.835 15.364-.032 21.213-5.864 5.846-15.36 5.837-21.213-.032z" fill="#070f15"></path><path d="m232.564 188.565c-12.52-12.521-32.922-12.544-45.476.012l-56.057 56.095c-5.858 5.858-5.858 15.355 0 21.213l24.215 24.215c5.858 5.858 15.355 5.858 21.213 0l56.105-56.088c12.479-12.481 12.617-32.824 0-45.447z" fill="#f3f9ff"></path><path d="m323.438 279.44c-12.52-12.521-32.922-12.544-45.476.012l-56.057 56.095c-5.858 5.858-5.858 15.355 0 21.213l24.215 24.215c5.858 5.858 15.355 5.858 21.213 0l56.105-56.088c12.479-12.482 12.618-32.825 0-45.447z" fill="#e1eeff"></path><path d="m120.401 437.026-45.39-45.446c-37.281-37.235-37.328-97.548.002-134.833l34.064-34.085c5.858-5.85 15.349-5.845 21.204.009l159.059 159.052c5.861 5.861 5.853 15.371-.009 21.222-.004.005-34.038 34.061-34.038 34.061-37.184 37.139-97.688 37.178-134.892.02z" fill="#b4ebff"></path><path d="m255.293 437.005s34.034-34.056 34.038-34.061c5.861-5.851 5.87-15.361.009-21.222l-79.533-79.53-112.105 112.106 22.699 22.727c37.204 37.159 97.708 37.12 134.892-.02z" fill="#60c7ff"></path><path d="m381.719 289.329-159.059-159.053c-5.862-5.862-5.852-15.371.009-21.223.004-.004 34.039-34.059 34.039-34.059 37.204-37.161 97.708-37.16 134.892-.02l45.389 45.444c37.278 37.233 37.333 97.544-.001 134.833l-34.064 34.085c-5.86 5.851-15.35 5.847-21.205-.007z" fill="#b4ebff"></path><path d="m402.923 289.337 34.064-34.085c37.335-37.289 37.279-97.6.001-134.833l-22.69-22.717-112.105 112.105 79.525 79.522c5.856 5.854 15.346 5.858 21.205.008z" fill="#60c7ff"></path></g></svg>