<svg id="fi_9334627" enable-background="new 0 0 609.928 609.928" height="512" viewBox="0 0 609.928 609.928" width="512" xmlns="http://www.w3.org/2000/svg"><g><g><g><path d="m570.267 542.516h-530.725c-21.796 0-39.542-17.747-39.542-39.662v-395.899c0-21.796 17.746-39.542 39.542-39.542h530.605c21.915 0 39.661 17.746 39.661 39.542v395.899c.001 21.915-17.745 39.662-39.541 39.662z" fill="#ffc738"></path><path d="m570.267 67.412h-265.363v475.103h265.362c21.915 0 39.542-17.746 39.542-39.542v-396.018c.001-21.796-17.745-39.543-39.541-39.543z" fill="#ffb42e"></path></g><g><path d="m609.809 313.123v-16.317h-213.076v-72.057l55.026-55.026h158.05c0-5.598-.596-11.077-1.548-16.317h-159.956c-2.144 0-4.288.953-5.717 2.501l-57.408 57.289h-72.057v-145.784h-16.317v145.663h-71.224l-57.289-57.289c-1.548-1.548-3.692-2.501-5.836-2.501h-160.79c-.953 5.36-1.548 10.838-1.548 16.317h159.003l53.954 53.954v73.01h-213.076v16.317h213.076v73.01l-53.954 54.311h-159.003c0 5.598.596 11.077 1.548 16.317h160.909c2.144 0 4.288-.953 5.836-2.501l57.289-57.289h71.224v145.663h16.317v-145.661h72.057l57.408 57.289c1.429 1.548 3.573 2.501 5.717 2.501h159.956c.953-5.36 1.548-10.838 1.548-16.317h-158.288l-55.026-55.026v-72.057zm-229.393 67.293h-151.023v-151.023h150.904v151.023z" fill="#c66d4e"></path><path d="m609.809 313.123v-16.317h-213.076v-72.057l55.026-55.026h158.05c0-5.598-.596-11.077-1.548-16.317h-159.956c-2.144 0-4.288.953-5.717 2.501l-57.408 57.289h-72.057v-145.784h-8.218v161.98h75.512v151.023h-75.512v161.981h8.218v-145.663h72.057l57.408 57.289c1.429 1.548 3.573 2.501 5.717 2.501h159.956c.953-5.36 1.548-10.719 1.548-16.317h-158.169l-55.026-55.026v-72.057z" fill="#af5a35"></path></g></g></g></svg>