<svg width="420" height="335" viewBox="0 0 420 335" fill="none" xmlns="http://www.w3.org/2000/svg">
<path d="M419.934 168.947C419.934 69.5307 336.954 0.813692 246.038 0.846692H167.797C75.794 0.813692 0.0670166 69.5517 0.0670166 168.947C0.0670166 259.878 75.796 334.588 167.797 334.15H246.038C336.951 334.587 419.934 259.857 419.934 168.947Z" fill="#0079BE"/>
<path d="M168.281 14.9316C84.2121 14.9576 16.088 83.2396 16.066 167.512C16.087 251.77 84.2111 320.044 168.281 320.071C252.369 320.045 320.51 251.77 320.52 167.512C320.508 83.2376 252.369 14.9576 168.281 14.9316Z" fill="white"/>
<path d="M72.066 167.098C72.146 125.918 97.8131 90.8017 134.006 76.8477V257.327C97.8131 243.381 72.145 208.283 72.066 167.098ZM203.066 257.373V76.8477C239.274 90.7687 264.981 125.905 265.047 167.104C264.981 208.316 239.274 243.426 203.066 257.373Z" fill="#0079BE"/>
</svg>
