<svg width="1000" height="597" viewBox="0 0 1000 597" fill="none" xmlns="http://www.w3.org/2000/svg">
<g clip-path="url(#clip0_57_33)">
<path fill-rule="evenodd" clip-rule="evenodd" d="M842.064 274.658C842.064 253.23 827.311 240.864 801.56 240.864H768.453V355.325H790.748V309.349H793.664L824.569 355.325H852.03L815.992 307.108C832.804 303.688 842.064 292.187 842.064 274.661V274.658ZM852.987 238.305C848.106 238.305 844.224 242.205 844.224 247.077C844.224 251.943 848.151 255.849 852.987 255.849C857.751 255.849 861.651 251.901 861.651 247.077C861.651 242.271 857.751 238.305 852.987 238.305ZM852.96 254.277C849.117 254.277 845.967 251.079 845.967 247.089C845.967 243.078 849.069 239.883 852.957 239.883C856.785 239.883 859.899 243.159 859.899 247.089C859.899 251.049 856.785 254.277 852.96 254.277ZM856.317 245.166C856.317 243.159 854.931 242.064 852.51 242.064H849.276V252.12H851.682V248.22L854.493 252.12H857.43L854.124 247.971C855.537 247.593 856.317 246.561 856.317 245.166ZM852.087 246.534H851.682V243.906H852.111C853.299 243.906 853.917 244.335 853.917 245.202C853.917 246.087 853.29 246.531 852.087 246.531V246.534ZM625.13 317.746L594.603 240.861H570.211L618.788 358.265H630.806L680.256 240.861H656.047L625.133 317.746H625.13ZM359.693 298.174C359.693 331.818 386.11 357.908 420.108 357.908C429.72 357.908 437.949 356.015 448.1 351.236V324.951C439.173 333.885 431.274 337.485 421.149 337.485C398.662 337.485 382.706 321.187 382.706 298.003C382.706 276.029 399.172 258.693 420.108 258.693C430.761 258.693 438.819 262.491 448.1 271.574V245.301C438.3 240.327 430.242 238.272 420.636 238.272C386.812 238.272 359.693 264.885 359.693 298.171V298.174ZM319.726 284.786C306.328 279.83 302.392 276.563 302.392 270.374C302.392 263.163 309.403 257.688 319.024 257.688C325.711 257.688 331.212 260.433 337.026 266.954L348.708 251.658C339.108 243.258 327.624 238.965 315.073 238.965C294.821 238.965 279.374 253.032 279.374 271.763C279.374 287.534 286.568 295.606 307.534 303.154C316.276 306.238 320.725 308.293 322.972 309.676C327.429 312.589 329.664 316.708 329.664 321.52C329.664 330.792 322.291 337.662 312.328 337.662C301.681 337.662 293.099 332.34 287.96 322.398L273.536 336.285C283.823 351.38 296.18 358.076 313.168 358.076C336.366 358.076 352.644 342.651 352.644 320.488C352.644 302.308 345.12 294.07 319.72 284.783H319.723L319.726 284.786ZM242.808 355.322H265.131V240.861H242.808V355.322ZM171.084 240.861H138.313V355.322H170.91C188.246 355.322 200.762 351.236 211.751 342.108C224.809 331.305 232.534 315.019 232.534 298.174C232.534 264.396 207.29 240.861 171.084 240.861ZM197.168 326.85C190.151 333.183 181.041 335.949 166.614 335.949H160.62V260.256H166.614C181.041 260.256 189.797 262.839 197.168 269.51C204.89 276.386 209.534 287.039 209.534 298.003C209.534 308.995 204.89 319.972 197.168 326.847V326.85ZM690.348 355.322H753.664V335.952H712.655V305.053H752.152V285.662H712.655V260.259H753.664V240.864H690.348V355.325V355.322ZM797.276 293.564H790.745V258.894H797.627C811.528 258.894 819.085 264.717 819.085 275.861C819.085 287.366 811.528 293.564 797.276 293.564Z" fill="#211D1C"/>
<path fill-rule="evenodd" clip-rule="evenodd" d="M516.273 237.606C549.917 237.606 577.183 264.869 577.183 298.477V298.516C577.183 332.127 549.917 359.39 516.273 359.39C482.662 359.39 455.399 332.127 455.399 298.516V298.477C455.399 264.869 482.662 237.606 516.273 237.606Z" fill="url(#paint0_linear_57_33)"/>
<path d="M94.0917 0H905.863C931.755 0 955.283 10.5836 972.329 27.629C989.377 44.6774 999.961 68.2056 999.961 94.0947V502.905C999.961 528.791 989.374 552.32 972.329 569.368C955.28 586.413 931.752 597 905.866 597H94.0947C68.2086 597 44.6774 586.416 27.629 569.368C10.5836 552.323 0 528.797 0 502.905V94.0947C0 68.2026 10.5836 44.6744 27.629 27.629C44.6744 10.5836 68.2056 0 94.0977 0H94.0917ZM905.863 32.4319H94.0917C77.1513 32.4319 61.7378 39.3766 50.5542 50.5602C39.3706 61.7438 32.4259 77.1573 32.4259 94.0977V502.908C32.4259 519.846 39.3706 535.259 50.5542 546.443C61.7408 557.629 77.1573 564.574 94.0917 564.574H905.863C922.798 564.574 938.211 557.629 949.398 546.443C960.581 535.256 967.529 519.843 967.529 502.911V94.1007C967.529 77.1663 960.584 61.7498 949.401 50.5632C938.217 39.3796 922.801 32.4349 905.863 32.4349V32.4319Z" fill="#808080"/>
</g>
<defs>
<linearGradient id="paint0_linear_57_33" x1="555.274" y1="334.932" x2="477.304" y2="262.066" gradientUnits="userSpaceOnUse">
<stop stop-color="#F7991E"/>
<stop offset="1" stop-color="#DE5214"/>
</linearGradient>
<clipPath id="clip0_57_33">
<rect width="999.961" height="597" fill="white"/>
</clipPath>
</defs>
</svg>
