<svg viewBox="0 0 53 53" xmlns="http://www.w3.org/2000/svg" id="fi_14539032"><g id="a"></g><g id="b"><g id="c"><g><path d="m53 26.5c0 1.69-.16 3.35-.47 4.95h-20.42v20.95c-1.81.39-3.68.6-5.61.6s-3.81-.21-5.62-.6v-20.95h-20.41c-.31-1.6-.47-3.26-.47-4.95s.16-3.35.47-4.95h20.41v-20.95c1.81-.39 3.69-.6 5.62-.6s3.8.21 5.61.6v20.95h20.42c.31 1.6.47 3.26.47 4.95z" fill="#f30040"></path><path d="m19.25 1.09v15.68l-12.26-8.21c3.21-3.48 7.33-6.1 11.99-7.47z" fill="#14439e"></path><path d="m6.42 19.55h-5.49c.27-1.04.61-2.04 1.01-3z" fill="#14439e"></path><path d="m17.64 19.55h-6.69l-7.94-5.3c.53-1.04 1.13-2.03 1.81-2.98z" fill="#f30040"></path><path d="m19.25 36.22v15.69h-.27c-4.66-1.38-8.79-4-11.99-7.48z" fill="#14439e"></path><path d="m6.42 33.45-4.48 3c-.4-.96-.74-1.96-1.01-3z" fill="#14439e"></path><path d="m17.64 33.45-12.82 8.28c-.68-.95-1.28-1.95-1.81-2.99l7.94-5.29z" fill="#f30040"></path><path d="m46.01 8.56-12.26 8.21v-15.68h.27c4.66 1.37 8.78 3.99 11.99 7.47z" fill="#14439e"></path><path d="m52.07 19.55h-5.48l4.48-3c.39.96.73 1.96 1 3z" fill="#14439e"></path><path d="m49.99 14.25-7.94 5.3h-6.68l12.81-8.28c.68.95 1.28 1.94 1.81 2.98z" fill="#f30040"></path><path d="m46.01 44.43c-3.2 3.48-7.33 6.1-11.99 7.48h-.27v-15.69z" fill="#14439e"></path><path d="m52.07 33.45c-.27 1.03-.61 2.03-1 2.99l-4.48-2.99z" fill="#14439e"></path><path d="m49.99 38.74c-.53 1.04-1.13 2.04-1.81 2.99l-12.81-8.28h6.68z" fill="#f30040"></path><path d="m52.53 21.55h-20.42v-20.95c.65.14 1.29.29 1.91.49h-.27v15.68l12.26-8.21c.78.85 1.51 1.75 2.17 2.71l-12.81 8.28h6.68l7.94-5.3c.41.75.76 1.51 1.08 2.3l-4.48 3h5.48c.18.65.34 1.32.46 2z" fill="#fff"></path><path d="m46.01 8.56-12.26 8.21v-15.68h.27c4.66 1.37 8.78 3.99 11.99 7.47z" fill="none"></path><path d="m49.99 14.25-7.94 5.3h-6.68l12.81-8.28c.68.95 1.28 1.94 1.81 2.98z" fill="none"></path><path d="m52.07 19.55h-5.48l4.48-3c.39.96.73 1.96 1 3z" fill="none"></path><path d="m20.88.6v20.95h-20.41c.12-.68.28-1.35.46-2h5.49l-4.48-3c.31-.79.66-1.55 1.07-2.3l7.94 5.3h6.69l-12.82-8.28c.66-.96 1.39-1.86 2.17-2.71l12.26 8.21v-15.68h-.27c.62-.2 1.25-.35 1.9-.49z" fill="#fff"></path><path d="m6.42 19.55h-5.49c.27-1.04.61-2.04 1.01-3z" fill="none"></path><path d="m17.64 19.55h-6.69l-7.94-5.3c.53-1.04 1.13-2.03 1.81-2.98z" fill="none"></path><path d="m19.25 1.09v15.68l-12.26-8.21c3.21-3.48 7.33-6.1 11.99-7.47z" fill="none"></path><path d="m20.88 31.45v20.95c-.65-.14-1.28-.29-1.9-.49h.27v-15.69l-12.26 8.21c-.78-.85-1.51-1.75-2.17-2.7l12.82-8.28h-6.69l-7.94 5.29c-.41-.74-.76-1.5-1.07-2.29l4.48-3h-5.49c-.18-.65-.34-1.32-.46-2z" fill="#fff"></path><path d="m6.42 33.45-4.48 3c-.4-.96-.74-1.96-1.01-3z" fill="none"></path><path d="m17.64 33.45-12.82 8.28c-.68-.95-1.28-1.95-1.81-2.99l7.94-5.29z" fill="none"></path><path d="m19.25 36.22v15.69h-.27c-4.66-1.38-8.79-4-11.99-7.48z" fill="none"></path><path d="m52.07 33.45h-5.48l4.48 2.99c-.32.8-.67 1.55-1.08 2.3l-7.94-5.29h-6.68l12.81 8.28c-.66.95-1.39 1.85-2.17 2.7l-12.26-8.21v15.69h.27c-.62.2-1.26.35-1.91.49v-20.95h20.42c-.12.68-.28 1.35-.46 2z" fill="#fff"></path><g fill="none"><path d="m46.01 44.43c-3.2 3.48-7.33 6.1-11.99 7.48h-.27v-15.69z"></path><path d="m49.99 38.74c-.53 1.04-1.13 2.04-1.81 2.99l-12.81-8.28h6.68z"></path><path d="m52.07 33.45c-.27 1.03-.61 2.03-1 2.99l-4.48-2.99z"></path><path d="m53 26.5c0 1.69-.16 3.35-.47 4.95h-20.42v20.95c-1.81.39-3.68.6-5.61.6s-3.81-.21-5.62-.6v-20.95h-20.41c-.31-1.6-.47-3.26-.47-4.95s.16-3.35.47-4.95h20.41v-20.95c1.81-.39 3.69-.6 5.62-.6s3.8.21 5.61.6v20.95h20.42c.31 1.6.47 3.26.47 4.95z"></path></g></g></g></g></svg>