<svg width="24" height="24" viewBox="0 0 24 24" xmlns="http://www.w3.org/2000/svg">
  <path fill="#0ea5e9" d="M7.86 7.704V18.5H4.214V7.704H7.86zm.24-3.34c0 1.037-.792 1.867-2.063 1.867h-.023C4.791 6.23 4 5.4 4 4.365 4 3.306 4.815 2.5 6.061 2.5c1.247 0 2.015.806 2.038 1.865zM21 12.31v6.19h-3.644v-5.776c0-1.45-.527-2.44-1.846-2.44-1.007 0-1.606.667-1.87 1.311-.096.231-.12.553-.12.876V18.5H9.876s.048-9.783 0-10.796h3.644v1.53c.484-.735 1.35-1.783 3.285-1.783C19.202 7.45 21 8.994 21 12.31z"/>
</svg>
