<svg viewBox="0 0 48 48" xmlns="http://www.w3.org/2000/svg" xmlns:xlink="http://www.w3.org/1999/xlink" id="fi_13543096"><linearGradient id="linear-gradient" gradientUnits="userSpaceOnUse" x1="35" x2="44" y1="41" y2="41"><stop offset="0" stop-color="#54a5ff"></stop><stop offset="1" stop-color="#8ad3fe"></stop></linearGradient><linearGradient id="linear-gradient-2" x1="30" x2="39" xlink:href="#linear-gradient" y1="42.5" y2="42.5"></linearGradient><linearGradient id="linear-gradient-3" x1="20" x2="20" xlink:href="#linear-gradient" y2="3"></linearGradient><linearGradient id="linear-gradient-4" gradientUnits="userSpaceOnUse" x1="24" x2="24" y1="47" y2="38"><stop offset="0" stop-color="#fe9661"></stop><stop offset="1" stop-color="#ffb369"></stop></linearGradient><linearGradient id="linear-gradient-5" x1="13" x2="3" xlink:href="#linear-gradient" y1="21" y2="21"></linearGradient><linearGradient id="linear-gradient-6" gradientTransform="matrix(-1 0 0 1 46 0)" x1="19" x2="9" xlink:href="#linear-gradient" y1="11" y2="11"></linearGradient><g id="Desert"><path d="m35 44 .86-5.16a1 1 0 0 1 1-.84h5.3a1 1 0 0 1 1 .84l.84 5.16z" fill="url(#linear-gradient)"></path><path d="m30 45 1.75-4.37a1 1 0 0 1 .93-.63h3.64a1 1 0 0 1 .93.63l1.75 4.37z" fill="url(#linear-gradient-2)"></path><g fill="#d7e9f7"><path d="m16 6c-.55 0-.65-.23-2.27-1.86a1 1 0 0 1 1.41-1.41l1.57 1.56a1 1 0 0 1 -.71 1.71z"></path><path d="m24 6c.55 0 .65-.23 2.27-1.86a1 1 0 0 0 -1.41-1.41l-1.57 1.56a1 1 0 0 0 .71 1.71z"></path><path d="m7 15h-2v-2a1 1 0 0 1 2 0z"></path><path d="m4 23h-2a1 1 0 0 1 0-2h2z"></path><path d="m5 27h-3a1 1 0 0 1 0-2h3z"></path><path d="m4 19h-2a1 1 0 0 1 0-2h2z"></path><path d="m32 7h-2a1 1 0 0 1 0-2h2z"></path><path d="m36 7h2a1 1 0 0 0 0-2h-2z"></path><path d="m36 11h2a1 1 0 0 0 0-2h-2z"></path><path d="m36 15h2a1 1 0 0 0 0-2h-2z"></path><path d="m14 14h-2a1 1 0 0 1 0-2h2z"></path><path d="m14 9h-2a1 1 0 0 1 0-2h2z"></path><path d="m19 4v-2a1 1 0 0 1 2 0v2z"></path><path d="m33 4v-2a1 1 0 0 1 2 0v2z"></path><path d="m26 8h2a1 1 0 0 1 0 2h-2z"></path><path d="m26 22h2a1 1 0 0 1 0 2h-2z"></path><path d="m26 27h2a1 1 0 0 1 0 2h-2z"></path><path d="m26 32h2a1 1 0 0 1 0 2h-2z"></path><path d="m8 19h2a1 1 0 0 0 0-2h-2z"></path></g><path d="m27 41h-14v-31a7 7 0 0 1 14 0z" fill="url(#linear-gradient-3)"></path><path d="m47 47h-46c0-5 7.72-9 17.25-9 6.21 0 11.66 1.71 14.69 4.29a20.73 20.73 0 0 1 3.52-.29c5.83 0 10.54 2.24 10.54 5z" fill="url(#linear-gradient-4)"></path><path d="m13 22v6h-6a4 4 0 0 1 -4-4v-7a3 3 0 0 1 6 0v5z" fill="url(#linear-gradient-5)"></path><path d="m27 13v6h6a4 4 0 0 0 4-4v-9a3 3 0 0 0 -6 0v7z" fill="url(#linear-gradient-6)"></path><path d="m39 36h-1a3 3 0 0 1 0-6h8a1 1 0 0 1 0 2h-8a1 1 0 0 0 0 2h1a1 1 0 0 1 0 2z" fill="#d7e9f7"></path><path d="m44 36h-1a1 1 0 0 1 0-2h1a1 1 0 0 1 0 2z" fill="#d7e9f7"></path><path d="m42 28h-9a3 3 0 0 1 0-6h1a1 1 0 0 1 0 2h-1a1 1 0 0 0 0 2h9a1 1 0 0 1 0 2z" fill="#d7e9f7"></path><path d="m39 24h-1a1 1 0 0 1 0-2h1a1 1 0 0 1 0 2z" fill="#d7e9f7"></path></g></svg>