<svg height="512" viewBox="0 0 32 32" width="512" xmlns="http://www.w3.org/2000/svg" id="fi_7235556"><g id="Ikon"><path d="m23.376 5.06836-16.07082-1.97315a2.91381 2.91381 0 0 0 -3.23682 2.5293l-1.97315 16.07031a2.909 2.909 0 0 0 2.5293 3.23682l16.06983 1.97315a2.91872 2.91872 0 0 0 3.23632-2.5293l1.97364-16.06983v-.00048a2.9083 2.9083 0 0 0 -2.5283-3.23682z" fill="#ffca28"></path><path d="m30 10v12a1.03276 1.03276 0 0 1 -.29.71l-6 6a1.03276 1.03276 0 0 1 -.71.29h-12a3.00879 3.00879 0 0 1 -3-3v-16a3.00879 3.00879 0 0 1 3-3h16a3.00879 3.00879 0 0 1 3 3z" fill="#fafafa"></path><circle cx="19" cy="18" fill="#f44336" r="7"></circle><path d="m20.41406 18 1.41406-1.41406a.99989.99989 0 0 0 -1.41406-1.41406l-1.41406 1.41406-1.41406-1.41406a.99989.99989 0 0 0 -1.41406 1.41406l1.41406 1.41406-1.41406 1.41406a.99989.99989 0 0 0 1.41406 1.41406l1.41406-1.41406 1.41406 1.41406a.99989.99989 0 0 0 1.41406-1.41406z" fill="#fff"></path><path d="m30 20v2a1.03276 1.03276 0 0 1 -.29.71l-6 6a1.03276 1.03276 0 0 1 -.71.29h-2v-6a3.00879 3.00879 0 0 1 3-3z" fill="#e0e0e0"></path></g></svg>