<svg xmlns="http://www.w3.org/2000/svg" xmlns:xlink="http://www.w3.org/1999/xlink" version="1.1" width="512" height="512" x="0" y="0" viewBox="0 0 512 512" style="enable-background:new 0 0 512 512" xml:space="preserve" class=""><g><circle cx="228.674" cy="85.703" r="36.293" fill="#ffb25a" opacity="1" data-original="#00ce8e" class=""/><circle cx="306.007" cy="21.454" r="21.454" fill="#f8ea69" opacity="1" data-original="#60daa8" class=""/><path fill="#f3f5fc" d="M313.567 154.128v82.218c-15.834 1.957-40.094 15.267-62.459 22.066-15.427-36.102-4.273-80.523 18.213-104.285h44.246z" opacity="1" data-original="#f3f5fc" class=""/><path fill="#d7ddf5" d="M269.321 154.128c-8.993 30.946-16.04 67.25-18.213 104.285-20.696 6.305-39.775 7.026-49.067-11.94v-92.345z" opacity="1" data-original="#d7ddf5" class=""/><path fill="#f8ea69" d="M419.51 486.349C259.389 517.336 206.803 349.352 252.045 245.71c20.408-8.231 41.835-18.821 61.522-9.364v19.481a80.794 80.794 0 0 0 15.731 47.913l88.142 119.727c14.793 20.088 13.629 44.709 2.07 62.882z" opacity="1" data-original="#60daa8" class=""/><path fill="#ffb25a" d="M419.51 486.349C409.96 501.379 393.303 512 372.679 512H139.323c-45.575 0-71.782-51.838-44.761-88.533l91.747-124.62a80.85 80.85 0 0 0 15.731-47.913v-4.461c14.577 12.032 31.894 6.562 50.005-.762-9.642 109.177 8.792 240.638 167.465 240.638z" opacity="1" data-original="#00ce8e" class=""/><path fill="#d7ddf5" d="M353.435 139.036c0 19.058-15.442 34.511-34.501 34.511h-46.255c-28.716 0-32.71-3.863-38.953-10.106-6.243-6.253-10.106-14.876-10.106-24.405 0-19.048 12.85-34.501 49.059-34.501h46.255c9.529 0 18.152 3.863 24.394 10.106 6.244 6.243 10.107 14.876 10.107 24.395z" opacity="1" data-original="#d7ddf5" class=""/><path fill="#c5cff1" d="M248.285 163.44c6.243 6.243 14.865 10.106 24.394 10.106h-79.612c-9.529 0-18.152-3.863-24.394-10.106-6.243-6.253-10.106-14.876-10.106-24.405 0-19.048 15.442-34.501 34.501-34.501h79.612c-19.058 0-34.501 15.453-34.501 34.501 0 9.53 3.863 18.152 10.106 24.405z" opacity="1" data-original="#c5cff1" class=""/><g fill="#ffa1ac"><ellipse cx="175.259" cy="438.869" rx="29.792" ry="23.725" fill="#ffa1ac" opacity="1" data-original="#ffa1ac" class=""/><ellipse cx="336.743" cy="438.869" rx="29.792" ry="23.725" fill="#ffa1ac" opacity="1" data-original="#ffa1ac" class=""/></g><path fill="#495560" d="M206.803 420.553a7.499 7.499 0 0 1-7.5-7.5c0-3.684-2.997-6.681-6.681-6.681s-6.681 2.997-6.681 6.681c0 4.143-3.357 7.5-7.5 7.5s-7.5-3.357-7.5-7.5c0-11.955 9.726-21.681 21.681-21.681s21.681 9.726 21.681 21.681a7.5 7.5 0 0 1-7.5 7.5zM333.561 420.553a7.499 7.499 0 0 1-7.5-7.5c0-3.684-2.997-6.681-6.681-6.681s-6.681 2.997-6.681 6.681c0 4.143-3.357 7.5-7.5 7.5s-7.5-3.357-7.5-7.5c0-11.955 9.726-21.681 21.681-21.681s21.681 9.726 21.681 21.681a7.5 7.5 0 0 1-7.5 7.5zM256.001 443.979a27.452 27.452 0 0 1-20.696-9.425 7.5 7.5 0 1 1 11.309-9.855c2.37 2.72 5.792 4.28 9.388 4.28s7.018-1.561 9.388-4.28a7.501 7.501 0 0 1 11.309 9.855 27.456 27.456 0 0 1-20.698 9.425z" opacity="1" data-original="#495560" class=""/></g></svg>