<svg id="fi_9123344" enable-background="new 0 0 512 512" height="512" viewBox="0 0 512 512" width="512" xmlns="http://www.w3.org/2000/svg"><g><path d="m338.413 350.138v141.224c0 16.482-18.391 26.292-32.079 17.112l-38.859-26.06c-6.942-4.656-16.009-4.656-22.951 0l-38.859 26.06c-13.688 9.18-32.079-.63-32.079-17.112v-141.224z" fill="#fb695b"></path><g><g><path d="m443.109 238.229c-4.182 5.058-5.79 11.785-4.193 18.152 1.082 4.316 1.648 8.818 1.648 13.444.082 26.61-18.852 48.779-43.576 54.115-8.107 1.751-14.278 8.108-15.875 16.236-2.586 13.155-10.188 24.549-20.428 32.605-122.519 0-189.989-101.141-189.989-195.495 0-63.469 51.597-135.49 116.116-168.395 2.4 1.483 4.729 3.152 6.985 5.017 5.172 4.275 12.043 5.759 18.543 4.1 30.225-7.706 62.81 13.269 68.774 43.587 1.597 8.128 7.767 14.484 15.875 16.236 24.673 5.326 43.576 27.413 43.576 53.94v.175c0 4.626-.567 9.127-1.648 13.444-1.597 6.367.01 13.094 4.193 18.152 18.367 22.158 18.367 52.528-.001 74.687z" fill="#fdc072"></path><path d="m360.688 372.779c-13.423 10.549-31.379 15.381-48.552 10.93-6.366-1.648-13.114-.196-18.162 4.007-22.509 18.739-53.435 18.739-75.944 0-5.048-4.203-11.796-5.656-18.162-4.007-30.277 7.85-63.005-13.155-68.98-43.535-1.597-8.128-7.767-14.484-15.875-16.236-24.673-5.326-43.576-27.413-43.576-53.94v-.175c0-4.625.567-9.138 1.648-13.454 1.597-6.366-.01-13.083-4.193-18.131-18.368-22.159-18.368-52.549 0-74.709 4.183-5.048 5.79-11.765 4.193-18.131-1.082-4.316-1.648-8.829-1.648-13.454-.082-26.609 18.852-48.779 43.587-54.115 8.097-1.751 14.268-8.108 15.865-16.236 5.965-30.308 38.539-51.293 68.774-43.587 6.5 1.659 13.372.175 18.543-4.1 20.181-16.679 47.079-18.358 68.61-5.017-43.628 39.466-71.03 96.538-71.03 160.007-.003 94.354 60.541 174.554 144.902 203.883z" fill="#ffb25a"></path></g><g><path d="m389.922 200.885c0 62.635-42.989 115.215-101.071 129.865-59.754-30.374-95.126-89.006-95.126-153.464 0-36.53 11.738-78.359 47.15-109.479 4.965-.556 10.013-.845 15.123-.845 73.968-.001 133.924 59.956 133.924 133.923z" fill="#f8ea69"></path><path d="m288.851 330.749c-10.508 2.648-21.521 4.059-32.852 4.059-73.967 0-133.924-59.957-133.924-133.924 0-68.857 51.952-125.569 118.8-133.079-16.019 30.153-25.095 64.561-25.095 101.092 0 64.459 28.258 122.324 73.071 161.852z" fill="#f6ca56"></path></g><g><g><path d="m202.171 209.503c.007 13.843-14.08 25.072-31.463 25.081s-31.481-11.206-31.488-25.049 14.079-25.073 31.463-25.082c17.383-.008 31.481 11.207 31.488 25.05z" fill="#ffa1ac"></path><path d="m309.827 209.449c.007 13.843 14.105 25.058 31.488 25.049s31.47-11.238 31.463-25.081-14.105-25.059-31.488-25.05c-17.384.009-31.47 11.239-31.463 25.082z" fill="#ffa1ac"></path><path d="m286.846 198.129c-.01-19.068-13.824-20.852-30.864-20.844-17.04.009-30.852 1.807-30.843 20.875.01 19.067 13.831 34.518 30.871 34.509 17.04-.008 30.846-15.472 30.836-34.54z" fill="#666667"></path></g><g fill="#666667"><path d="m174.044 189.968c-4.266 0-7.724-3.456-7.726-7.722-.004-6.065 2.356-11.769 6.642-16.06 4.287-4.292 9.988-6.656 16.054-6.659h.011c12.517 0 22.701 10.179 22.708 22.697.003 4.267-3.455 7.728-7.722 7.73-.001 0-.003 0-.004 0-4.266 0-7.724-3.456-7.726-7.722-.002-3.999-3.257-7.252-7.256-7.252-.002 0-.003 0-.004 0-1.938.001-3.759.757-5.129 2.128s-2.123 3.193-2.122 5.131c.003 4.267-3.455 7.728-7.722 7.73-.001-.001-.003-.001-.004-.001z"></path><path d="m307.963 189.901c-4.266 0-7.724-3.457-7.726-7.723-.006-12.521 10.175-22.712 22.696-22.719h.011c6.062 0 11.761 2.359 16.049 6.643 4.291 4.287 6.656 9.988 6.659 16.054.002 4.267-3.455 7.728-7.723 7.73-.001 0-.003 0-.004 0-4.266.001-7.724-3.456-7.726-7.723-.001-1.938-.757-3.76-2.127-5.129s-3.192-2.123-5.128-2.123c-.002 0-.003 0-.004 0-4 .002-7.253 3.259-7.251 7.26.002 4.267-3.455 7.728-7.723 7.73 0 0-.002 0-.003 0z"></path></g></g></g></g></svg>