<svg id="fi_6109991" enable-background="new 0 0 512 512" height="512" viewBox="0 0 512 512" width="512" xmlns="http://www.w3.org/2000/svg"><g><g><path d="m444.489.007c0-.007-.279-.007-.279-.007-34.452 0-62.38 27.929-62.38 62.38 0-.001 0 48.053 0 65.29l27.268 12.314c2.16.975 4.635.975 6.795 0l40.25-18.179c2.16-.976 4.635-.976 6.795 0l37.827 17.083c2.732 1.234 5.826-.757 5.826-3.754 0-18.818 0-72.754 0-72.754-.001-34.358-27.779-62.222-62.102-62.373z" fill="#ffeab7"></path><path d="m5.41 506.411v-444.031c0-34.451 27.928-62.38 62.38-62.38h376.42c-34.452 0-62.38 27.929-62.38 62.38 0-.001 0 389.227 0 444.038 0 2.997-3.094 4.987-5.826 3.754l-37.827-17.083c-2.16-.975-4.635-.975-6.795 0l-40.25 18.179c-2.16.976-4.635.976-6.795 0l-40.256-18.18c-2.16-.975-4.635-.975-6.795 0l-40.257 18.18c-2.16.975-4.635.975-6.794 0l-40.259-18.18c-2.16-.975-4.635-.975-6.794 0l-40.258 18.18c-2.16.975-4.634.975-6.794 0l-40.265-18.181c-2.16-.975-4.634-.975-6.794 0l-37.836 17.084c-2.731 1.235-5.825-.763-5.825-3.76z" fill="#fff8e6"></path><path d="m139.218 0h-71.428c-34.452 0-62.38 27.929-62.38 62.38v444.03c0 2.997 3.094 4.995 5.826 3.762l37.836-17.084c2.16-.975 4.634-.975 6.794 0l40.265 18.18c2.16.975 4.634.975 6.794 0l32.278-14.576c-51.876-138.155-40.532-360.381 4.015-496.692z" fill="#ffeab7"></path><path d="m278.995 267.755h-180.07c-11.568 0-20.945-9.377-20.945-20.945s9.377-20.945 20.945-20.945h180.069c11.568 0 20.945 9.377 20.945 20.945.001 11.568-9.376 20.945-20.944 20.945z" fill="#ffeab7"></path><path d="m98.925 225.865c-11.568 0-20.945 9.377-20.945 20.945s9.377 20.945 20.945 20.945h1.901c.016-13.958.329-27.947.926-41.891h-2.827z" fill="#fad989"></path><path d="m249.148 358.281h-120.376c-11.568 0-20.945-9.377-20.945-20.945s9.377-20.945 20.945-20.945h120.376c11.568 0 20.945 9.377 20.945 20.945s-9.377 20.945-20.945 20.945z" fill="#ffeab7"></path></g><g><g fill="#ffa1ac"><ellipse cx="111.469" cy="139.327" rx="29.355" ry="23.377"></ellipse><ellipse cx="270.583" cy="139.327" rx="29.355" ry="23.377"></ellipse></g><g fill="#495560"><path d="m128.577 124.323c-4.142 0-7.5-3.357-7.5-7.5v-12c0-4.143 3.358-7.5 7.5-7.5s7.5 3.357 7.5 7.5v12c0 4.143-3.358 7.5-7.5 7.5z"></path><path d="m253.475 124.323c-4.142 0-7.5-3.357-7.5-7.5v-12c0-4.143 3.358-7.5 7.5-7.5 4.143 0 7.5 3.357 7.5 7.5v12c0 4.143-3.358 7.5-7.5 7.5z"></path><path d="m191.026 131.467c-8.477 0-16.539-3.671-22.118-10.072-2.722-3.122-2.397-7.859.726-10.581 3.123-2.723 7.86-2.398 10.582.726 2.73 3.132 6.67 4.928 10.811 4.928s8.081-1.796 10.811-4.928c2.722-3.122 7.459-3.447 10.582-.726s3.447 7.459.726 10.581c-5.582 6.401-13.643 10.072-22.12 10.072z"></path></g></g></g></svg>