<svg xmlns="http://www.w3.org/2000/svg" viewBox="0 0 24 24" fill="none" stroke="currentColor" stroke-width="2">
  <path d="M12.897 1.557a1 1 0 0 0-1.794 0l-2.09 4.236a2 2 0 0 1-1.506 1.093l-4.677.679a1 1 0 0 0-.555 1.705l3.384 3.3a2 2 0 0 1 .575 1.771l-.798 4.653a1 1 0 0 0 1.451 1.054l4.186-2.2a2 2 0 0 1 1.854 0l4.186 2.2a1 1 0 0 0 1.451-1.054l-.798-4.653a2 2 0 0 1 .575-1.771l3.384-3.3a1 1 0 0 0-.555-1.705l-4.677-.679a2 2 0 0 1-1.506-1.093l-2.09-4.236z" stroke-linecap="round" stroke-linejoin="round"/>
</svg>
