<svg xmlns="http://www.w3.org/2000/svg" width="57" height="56" viewBox="0 0 57 56" fill="none">
<circle cx="28.5" cy="28" r="28" fill="#23A26D" fill-opacity="0.12"/>
<path d="M28 14.6667C20.6533 14.6667 14.6667 20.6534 14.6667 28C14.6667 35.3467 20.6533 41.3334 28 41.3334C35.3467 41.3334 41.3333 35.3467 41.3333 28C41.3333 20.6534 35.3467 14.6667 28 14.6667ZM34.3733 24.9334L26.8133 32.4934C26.6267 32.68 26.3733 32.7867 26.1067 32.7867C25.84 32.7867 25.5867 32.68 25.4 32.4934L21.6267 28.72C21.24 28.3334 21.24 27.6934 21.6267 27.3067C22.0133 26.92 22.6533 26.92 23.04 27.3067L26.1067 30.3734L32.96 23.52C33.3467 23.1334 33.9867 23.1334 34.3733 23.52C34.76 23.9067 34.76 24.5334 34.3733 24.9334Z" fill="#23A26D"/>
</svg>